<svg width="150" height="147" viewBox="0 0 150 147" fill="none" xmlns="http://www.w3.org/2000/svg">
<rect y="8.5" width="138" height="138" rx="12" fill="url(#paint0_linear_4052_3389)" fill-opacity="0.1"/>
<rect x="0.5" y="9" width="137" height="137" rx="11.5" stroke="url(#paint1_linear_4052_3389)" stroke-opacity="0.4"/>
<g clip-path="url(#clip0_4052_3389)">
<rect x="110" y="0.5" width="40" height="40" rx="20" fill="#F1F2F2"/>
<path d="M130 3.83325C120.8 3.83325 113.333 11.2999 113.333 20.4999C113.333 29.6999 120.8 37.1666 130 37.1666C139.2 37.1666 146.667 29.6999 146.667 20.4999C146.667 11.2999 139.2 3.83325 130 3.83325ZM126.667 28.8333L118.333 20.4999L120.683 18.1499L126.667 24.1166L139.317 11.4666L141.667 13.8333L126.667 28.8333Z" fill="#1BA2BB"/>
</g>
<mask id="mask0_4052_3389" style="mask-type:alpha" maskUnits="userSpaceOnUse" x="8" y="47" width="126" height="44">
<path d="M120.173 64.7496L25.9918 90.605L8.19614 90.605L8.19611 47.3631L133.717 47.3633L133.717 64.7496H120.173Z" fill="#D9D9D9"/>
</mask>
<g mask="url(#mask0_4052_3389)">
<path fill-rule="evenodd" clip-rule="evenodd" d="M131.612 63.5346C132.41 67.3405 130.371 71.0605 127.767 74.2426C125.755 76.7023 122.478 78.9535 118.806 80.9874C115.025 83.0824 110.387 85.1804 105.255 87.2046C94.9826 91.2562 82.428 95.1292 70.1141 98.1595C57.8209 101.185 45.5885 103.414 35.9801 104.11C31.2064 104.455 26.8481 104.441 23.3757 103.859C21.6404 103.568 19.9217 103.102 18.4249 102.333C16.921 101.561 15.3613 100.33 14.4841 98.4005C12.8255 94.7517 14.1922 91.2507 15.796 88.8599C17.4286 86.4262 19.8764 84.2087 22.3655 82.3367C27.3763 78.5682 33.6994 75.3581 37.7398 73.9151C53.2229 68.3854 70.9208 62.8604 100.659 57.3533C105.047 56.5407 109.424 55.9802 113.388 55.8046C117.284 55.6322 121.075 55.8156 124.145 56.6711C127.041 57.4782 130.732 59.3391 131.612 63.5346ZM113.775 64.5322C110.313 64.6856 106.35 65.1841 102.249 65.9434C73.0182 71.3566 55.7715 76.7518 40.6781 82.1423C37.4466 83.2963 31.9065 86.0923 27.6165 89.3187C25.4552 90.9441 23.8932 92.4712 23.051 93.7268C22.7759 94.1368 22.6302 94.4306 22.5544 94.629C22.9867 94.8261 23.7118 95.0569 24.8211 95.243C27.2921 95.6575 30.8534 95.722 35.3493 95.3965C44.2803 94.75 55.9876 92.639 68.0265 89.6765C80.0446 86.719 92.2142 82.957 102.05 79.0778C106.972 77.1366 111.234 75.1951 114.573 73.3456C118.021 71.435 120.084 69.8365 121.006 68.7105C122.42 66.9814 122.846 65.9719 122.981 65.5284C122.768 65.4127 122.403 65.2548 121.8 65.0867C120.031 64.5937 117.307 64.3758 113.775 64.5322ZM123.243 65.7173C123.24 65.7184 123.222 65.7033 123.197 65.6684C123.234 65.6988 123.246 65.7162 123.243 65.7173ZM22.1947 94.4286C22.1948 94.4285 22.1973 94.4305 22.2019 94.4345C22.1969 94.4306 22.1946 94.4286 22.1947 94.4286ZM22.4777 94.9065C22.4851 94.9445 22.4827 94.9656 22.4797 94.9666C22.4767 94.9677 22.473 94.9487 22.4777 94.9065Z" fill="#5FCBBF"/>
<path fill-rule="evenodd" clip-rule="evenodd" d="M131.612 58.724C132.41 62.5299 130.371 66.25 127.767 69.432C125.755 71.8918 122.478 74.1429 118.806 76.1768C115.025 78.2718 110.387 80.3698 105.255 82.3941C94.9826 86.4457 82.428 90.3187 70.1141 93.349C57.8209 96.3741 45.5885 98.6037 35.9801 99.2993C31.2064 99.6449 26.8481 99.6307 23.3757 99.0482C21.6404 98.757 19.9217 98.2918 18.4249 97.5228C16.921 96.7501 15.3613 95.5199 14.4841 93.5899C12.8255 89.9411 14.1922 86.4401 15.796 84.0494C17.4286 81.6157 19.8764 79.3982 22.3655 77.5262C27.3763 73.7577 33.6994 70.5475 37.7398 69.1045C53.2229 63.5749 70.9208 58.0498 100.659 52.5428C105.047 51.7301 109.424 51.1697 113.388 50.9941C117.284 50.8216 121.075 51.005 124.145 51.8606C127.041 52.6676 130.732 54.5285 131.612 58.724ZM113.775 59.7217C110.313 59.875 106.35 60.3735 102.249 61.1329C73.0182 66.5461 55.7715 71.9412 40.6781 77.3317C37.4466 78.4858 31.9065 81.2817 27.6165 84.5081C25.4552 86.1335 23.8932 87.6606 23.051 88.9162C22.7759 89.3263 22.6302 89.6201 22.5544 89.8184C22.9867 90.0155 23.7118 90.2463 24.8211 90.4324C27.2921 90.847 30.8534 90.9114 35.3493 90.5859C44.2803 89.9394 55.9876 87.8285 68.0265 84.8659C80.0446 81.9084 92.2142 78.1465 102.05 74.2672C106.972 72.326 111.234 70.3846 114.573 68.535C118.021 66.6244 120.084 65.026 121.006 63.9C122.42 62.1709 122.846 61.1614 122.981 60.7178C122.768 60.6021 122.403 60.4443 121.8 60.2761C120.031 59.7831 117.307 59.5653 113.775 59.7217ZM123.243 60.9068C123.24 60.9079 123.222 60.8927 123.197 60.8579C123.234 60.8883 123.246 60.9057 123.243 60.9068ZM22.1947 89.618C22.1948 89.618 22.1973 89.6199 22.2019 89.624C22.1969 89.6201 22.1946 89.6181 22.1947 89.618ZM22.4777 90.096C22.4851 90.1339 22.4827 90.155 22.4797 90.1561C22.4767 90.1571 22.473 90.1381 22.4777 90.096Z" fill="#C5EDEE"/>
</g>
<path d="M46.313 49.063H91.0682L84.9493 87.3497L58.7256 89.6224L44.9144 65.6714L46.313 49.063Z" fill="white"/>
<g filter="url(#filter0_i_4052_3389)">
<path d="M51.351 43.5C49.3822 43.5 47.6497 44.2578 46.2944 45.4742C44.939 46.6907 43.928 48.3372 43.1563 50.1885C41.6127 53.8909 41 58.4768 41 62.6095C41 71.0015 44.6244 79.7395 48.6741 83.768C49.2355 84.3265 49.6741 85.5724 49.8414 87.3072C50.0086 89.0421 49.938 91.1917 49.8247 93.3864C49.7114 95.5812 49.5579 97.8285 49.5917 99.8558C49.6256 101.883 49.7929 103.696 50.6235 105.143C52.7882 108.915 57.5692 112.639 63.0142 112.496C63.1832 112.491 63.3493 112.451 63.5021 112.378C63.6549 112.305 63.791 112.2 63.9017 112.071C64.0124 111.942 64.0953 111.791 64.1451 111.627C64.1949 111.464 64.2106 111.291 64.191 111.121C64.191 111.121 63.6592 106.294 64.1387 101.548C64.3785 99.1754 64.8862 96.835 65.7292 95.2331C66.5721 93.6313 67.5316 92.8134 69.1526 92.8134C70.7735 92.8134 71.7017 93.6257 72.5213 95.2235C73.3408 96.8212 73.8228 99.1565 74.0309 101.529C74.4472 106.275 73.8502 111.102 73.8502 111.102C73.8275 111.277 73.8419 111.454 73.8927 111.623C73.9434 111.791 74.0293 111.947 74.1444 112.079C74.2595 112.211 74.4012 112.317 74.5601 112.389C74.7189 112.461 74.8911 112.497 75.065 112.496C80.5446 112.496 84.6877 109.54 87.2038 105.69C89.6117 102.004 88.6446 97.0186 88.0477 92.6931C87.7493 90.5304 87.5123 88.5084 87.6436 86.9798C87.7749 85.4512 88.162 84.568 89.089 84.0135C92.1509 82.1821 94.0483 78.7508 95.244 74.8765C96.4397 71.0022 96.941 66.6168 96.9961 62.6287C97.0517 58.6057 96.5222 54.0161 95.0015 50.2799C94.2411 48.4118 93.2204 46.749 91.8396 45.5128C90.4588 44.2765 88.6808 43.5 86.6451 43.5C79.5756 43.5 75.954 44.1339 73.6362 44.7832C71.3185 45.4325 70.5808 45.9653 68.998 45.9653C67.4153 45.9653 66.68 45.4325 64.3622 44.7832C62.0444 44.1339 58.4205 43.5 51.351 43.5ZM55.4995 49.1242C55.8651 49.1382 56.2034 49.1713 56.5098 49.2155C57.7355 49.393 58.5496 49.7982 58.5496 49.7982L57.4608 51.9988C57.4608 51.9988 57.0624 51.7855 56.158 51.6545C55.2536 51.5236 53.9376 51.5222 52.3043 52.0734C51.7378 52.2644 51.2741 52.699 50.8589 53.4C50.4436 54.101 50.1248 55.0291 49.9151 55.9496C49.4955 57.7909 49.4824 59.525 49.4824 59.525H47.0575C47.0575 59.525 47.0491 57.5587 47.5425 55.3936C47.7891 54.311 48.1527 53.1685 48.7644 52.136C49.3762 51.1034 50.2818 50.1487 51.5412 49.7235C53.0549 49.2125 54.4026 49.0829 55.4995 49.1242ZM59.2676 57.0598C61.9421 57.0598 64.1292 59.2822 64.1292 61.9908C64.1292 64.6994 61.9421 66.924 59.2676 66.924C56.593 66.924 54.3987 64.6994 54.3987 61.9908C54.3987 59.2822 56.593 57.0598 59.2676 57.0598ZM78.7381 57.0598C81.4126 57.0598 83.6092 59.2822 83.6092 61.9908C83.6092 64.6994 81.4126 66.924 78.7381 66.924C76.0635 66.924 73.8692 64.6994 73.8692 61.9908C73.8692 59.2822 76.0635 57.0598 78.7381 57.0598ZM60.4443 74.3227H77.4804C77.8032 74.3214 78.1133 74.4501 78.3425 74.6804C78.5716 74.9107 78.7011 75.2236 78.7024 75.5506V76.7881C78.7024 81.0928 74.4865 85.4147 68.9624 85.4147C63.4383 85.4147 59.2224 81.0928 59.2224 76.7881V75.5506C59.2237 75.2236 59.3531 74.9107 59.5823 74.6804C59.8114 74.4501 60.1215 74.3214 60.4443 74.3227Z" fill="url(#paint2_linear_4052_3389)"/>
</g>
<mask id="mask1_4052_3389" style="mask-type:alpha" maskUnits="userSpaceOnUse" x="8" y="54" width="126" height="55">
<path d="M26.1652 90.5925L119.987 64.9076L133.717 54.1865V87.687H111.101V108.042H8.19612L8.19611 90.1077L26.1652 90.5925Z" fill="#D9D9D9"/>
</mask>
<g mask="url(#mask1_4052_3389)">
<path fill-rule="evenodd" clip-rule="evenodd" d="M131.612 63.5343C132.41 67.3402 130.371 71.0603 127.767 74.2423C125.755 76.7021 122.478 78.9532 118.806 80.9871C115.025 83.0821 110.387 85.1801 105.255 87.2044C94.9826 91.256 82.4279 95.129 70.114 98.1593C57.8209 101.184 45.5884 103.414 35.9801 104.11C31.2064 104.455 26.8481 104.441 23.3757 103.858C21.6403 103.567 19.9217 103.102 18.4249 102.333C16.921 101.56 15.3613 100.33 14.484 98.4002C12.8255 94.7514 14.1922 91.2504 15.796 88.8597C17.4286 86.426 19.8764 84.2085 22.3655 82.3365C27.3762 78.568 33.6994 75.3578 37.7398 73.9148C53.2229 68.3852 70.9208 62.8601 100.659 57.3531C105.047 56.5404 109.424 55.98 113.388 55.8044C117.284 55.6319 121.075 55.8153 124.145 56.6709C127.041 57.4779 130.732 59.3389 131.612 63.5343ZM113.775 64.532C110.312 64.6853 106.35 65.1838 102.249 65.9432C73.0182 71.3564 55.7715 76.7515 40.678 82.142C37.4466 83.2961 31.9064 86.092 27.6164 89.3184C25.4552 90.9438 23.8932 92.4709 23.0509 93.7265C22.7759 94.1366 22.6302 94.4304 22.5543 94.6287C22.9867 94.8258 23.7117 95.0566 24.8211 95.2427C27.292 95.6573 30.8533 95.7217 35.3493 95.3963C44.2802 94.7497 55.9876 92.6388 68.0265 89.6762C80.0446 86.7187 92.2142 82.9568 102.05 79.0775C106.972 77.1363 111.234 75.1949 114.573 73.3453C118.021 71.4347 120.084 69.8363 121.006 68.7103C122.42 66.9812 122.846 65.9717 122.981 65.5281C122.768 65.4124 122.403 65.2546 121.8 65.0864C120.031 64.5934 117.307 64.3756 113.775 64.532ZM123.243 65.7171C123.24 65.7182 123.222 65.703 123.197 65.6682C123.234 65.6986 123.246 65.716 123.243 65.7171ZM22.1947 94.4283C22.1948 94.4283 22.1973 94.4302 22.2018 94.4343C22.1968 94.4304 22.1946 94.4284 22.1947 94.4283ZM22.4777 94.9063C22.485 94.9442 22.4827 94.9653 22.4797 94.9664C22.4766 94.9674 22.473 94.9485 22.4777 94.9063Z" fill="#5FCBBF"/>
<path fill-rule="evenodd" clip-rule="evenodd" d="M131.612 58.724C132.41 62.5299 130.371 66.25 127.767 69.432C125.755 71.8918 122.478 74.1429 118.806 76.1768C115.025 78.2718 110.387 80.3698 105.255 82.3941C94.9826 86.4457 82.4279 90.3187 70.114 93.349C57.8209 96.3741 45.5884 98.6037 35.9801 99.2993C31.2064 99.6449 26.8481 99.6307 23.3757 99.0482C21.6403 98.757 19.9217 98.2918 18.4249 97.5228C16.921 96.7501 15.3613 95.5199 14.484 93.5899C12.8255 89.9411 14.1922 86.4401 15.796 84.0494C17.4286 81.6157 19.8764 79.3982 22.3655 77.5262C27.3762 73.7577 33.6994 70.5475 37.7398 69.1045C53.2229 63.5749 70.9208 58.0498 100.659 52.5428C105.047 51.7301 109.424 51.1697 113.388 50.9941C117.284 50.8216 121.075 51.005 124.145 51.8606C127.041 52.6676 130.732 54.5285 131.612 58.724ZM113.775 59.7217C110.312 59.875 106.35 60.3735 102.249 61.1329C73.0182 66.5461 55.7715 71.9412 40.678 77.3317C37.4466 78.4858 31.9064 81.2817 27.6164 84.5081C25.4552 86.1335 23.8932 87.6606 23.0509 88.9162C22.7759 89.3263 22.6302 89.6201 22.5543 89.8184C22.9867 90.0155 23.7117 90.2463 24.8211 90.4324C27.292 90.847 30.8533 90.9114 35.3493 90.5859C44.2802 89.9394 55.9876 87.8285 68.0265 84.8659C80.0446 81.9084 92.2142 78.1465 102.05 74.2672C106.972 72.326 111.234 70.3846 114.573 68.535C118.021 66.6244 120.084 65.026 121.006 63.9C122.42 62.1709 122.846 61.1614 122.981 60.7178C122.768 60.6021 122.403 60.4443 121.8 60.2761C120.031 59.7831 117.307 59.5653 113.775 59.7217ZM123.243 60.9068C123.24 60.9079 123.222 60.8927 123.197 60.8579C123.234 60.8883 123.246 60.9057 123.243 60.9068ZM22.1947 89.618C22.1948 89.618 22.1973 89.6199 22.2018 89.624C22.1968 89.6201 22.1946 89.6181 22.1947 89.618ZM22.4777 90.096C22.485 90.1339 22.4827 90.155 22.4797 90.1561C22.4766 90.1571 22.473 90.1381 22.4777 90.096Z" fill="#C5EDEE"/>
</g>
<defs>
<filter id="filter0_i_4052_3389" x="41" y="43.5" width="56" height="73" filterUnits="userSpaceOnUse" color-interpolation-filters="sRGB">
<feFlood flood-opacity="0" result="BackgroundImageFix"/>
<feBlend mode="normal" in="SourceGraphic" in2="BackgroundImageFix" result="shape"/>
<feColorMatrix in="SourceAlpha" type="matrix" values="0 0 0 0 0 0 0 0 0 0 0 0 0 0 0 0 0 0 127 0" result="hardAlpha"/>
<feOffset dy="4"/>
<feGaussianBlur stdDeviation="2"/>
<feComposite in2="hardAlpha" operator="arithmetic" k2="-1" k3="1"/>
<feColorMatrix type="matrix" values="0 0 0 0 0 0 0 0 0 0 0 0 0 0 0 0 0 0 0.08 0"/>
<feBlend mode="normal" in2="shape" result="effect1_innerShadow_4052_3389"/>
</filter>
<linearGradient id="paint0_linear_4052_3389" x1="69" y1="8.5" x2="69" y2="146.5" gradientUnits="userSpaceOnUse">
<stop stop-color="#1BA2BB" stop-opacity="0.5"/>
<stop offset="1" stop-color="#1BA2BB"/>
</linearGradient>
<linearGradient id="paint1_linear_4052_3389" x1="69" y1="8.5" x2="69" y2="146.5" gradientUnits="userSpaceOnUse">
<stop stop-color="#1BA2BB"/>
<stop offset="1" stop-color="#1BA2BB" stop-opacity="0.5"/>
</linearGradient>
<linearGradient id="paint2_linear_4052_3389" x1="69" y1="43.5" x2="69" y2="112.5" gradientUnits="userSpaceOnUse">
<stop stop-color="#7CE8FC"/>
<stop offset="1" stop-color="#1BA2BB"/>
</linearGradient>
<clipPath id="clip0_4052_3389">
<rect x="110" y="0.5" width="40" height="40" rx="20" fill="white"/>
</clipPath>
</defs>
</svg>
