<svg width="150" height="147" viewBox="0 0 150 147" fill="none" xmlns="http://www.w3.org/2000/svg">
<rect y="8.5" width="138" height="138" rx="12" fill="url(#paint0_linear_4052_3351)" fill-opacity="0.1"/>
<rect x="0.5" y="9" width="137" height="137" rx="11.5" stroke="url(#paint1_linear_4052_3351)" stroke-opacity="0.4"/>
<mask id="mask0_4052_3351" style="mask-type:alpha" maskUnits="userSpaceOnUse" x="3" y="50" width="126" height="44">
<path d="M115.173 67.7496L20.9918 93.605L3.19613 93.605L3.1961 50.3631L128.717 50.3633L128.717 67.7496H115.173Z" fill="#D9D9D9"/>
</mask>
<g mask="url(#mask0_4052_3351)">
<path fill-rule="evenodd" clip-rule="evenodd" d="M126.612 66.5346C127.41 70.3405 125.371 74.0605 122.767 77.2426C120.755 79.7023 117.478 81.9535 113.806 83.9874C110.025 86.0824 105.387 88.1804 100.255 90.2046C89.9826 94.2562 77.428 98.1292 65.1141 101.16C52.8209 104.185 40.5885 106.414 30.9801 107.11C26.2064 107.455 21.8481 107.441 18.3757 106.859C16.6404 106.568 14.9217 106.102 13.4249 105.333C11.921 104.561 10.3613 103.33 9.48408 101.4C7.82555 97.7517 9.19225 94.2507 10.796 91.8599C12.4286 89.4262 14.8764 87.2087 17.3655 85.3367C22.3763 81.5682 28.6994 78.3581 32.7398 76.9151C48.2229 71.3854 65.9208 65.8604 95.6586 60.3533C100.047 59.5407 104.424 58.9802 108.388 58.8046C112.284 58.6322 116.075 58.8156 119.145 59.6711C122.041 60.4782 125.732 62.3391 126.612 66.5346ZM108.775 67.5322C105.313 67.6856 101.35 68.1841 97.2494 68.9434C68.0182 74.3566 50.7715 79.7518 35.6781 85.1423C32.4466 86.2963 26.9065 89.0923 22.6165 92.3187C20.4552 93.9441 18.8933 95.4712 18.051 96.7268C17.7759 97.1368 17.6303 97.4306 17.5544 97.629C17.9868 97.8261 18.7118 98.0569 19.8211 98.243C22.2921 98.6575 25.8534 98.722 30.3493 98.3965C39.2803 97.75 50.9876 95.639 63.0265 92.6765C75.0446 89.719 87.2142 85.957 97.0498 82.0778C101.972 80.1366 106.234 78.1951 109.573 76.3456C113.021 74.435 115.084 72.8365 116.006 71.7105C117.42 69.9814 117.846 68.9719 117.981 68.5284C117.768 68.4127 117.403 68.2548 116.8 68.0867C115.031 67.5937 112.307 67.3758 108.775 67.5322ZM118.243 68.7173C118.241 68.7184 118.222 68.7033 118.197 68.6684C118.234 68.6988 118.246 68.7162 118.243 68.7173ZM17.1947 97.4286C17.1948 97.4285 17.1973 97.4305 17.2019 97.4345C17.1969 97.4306 17.1946 97.4286 17.1947 97.4286ZM17.4777 97.9065C17.4851 97.9445 17.4827 97.9656 17.4797 97.9666C17.4767 97.9677 17.473 97.9487 17.4777 97.9065Z" fill="#5FCBBF"/>
<path fill-rule="evenodd" clip-rule="evenodd" d="M126.612 61.724C127.41 65.5299 125.371 69.25 122.767 72.432C120.755 74.8918 117.478 77.1429 113.806 79.1768C110.025 81.2718 105.387 83.3698 100.255 85.3941C89.9826 89.4457 77.428 93.3187 65.1141 96.349C52.8209 99.3741 40.5885 101.604 30.9801 102.299C26.2064 102.645 21.8481 102.631 18.3757 102.048C16.6404 101.757 14.9217 101.292 13.4249 100.523C11.921 99.7501 10.3613 98.5199 9.48408 96.5899C7.82555 92.9411 9.19225 89.4401 10.796 87.0494C12.4286 84.6157 14.8764 82.3982 17.3655 80.5262C22.3763 76.7577 28.6994 73.5475 32.7398 72.1045C48.2229 66.5749 65.9208 61.0498 95.6586 55.5428C100.047 54.7301 104.424 54.1697 108.388 53.9941C112.284 53.8216 116.075 54.005 119.145 54.8606C122.041 55.6676 125.732 57.5285 126.612 61.724ZM108.775 62.7217C105.313 62.875 101.35 63.3735 97.2494 64.1329C68.0182 69.5461 50.7715 74.9412 35.6781 80.3317C32.4466 81.4858 26.9065 84.2817 22.6165 87.5081C20.4552 89.1335 18.8933 90.6606 18.051 91.9162C17.7759 92.3263 17.6303 92.6201 17.5544 92.8184C17.9868 93.0155 18.7118 93.2463 19.8211 93.4324C22.2921 93.847 25.8534 93.9114 30.3493 93.5859C39.2803 92.9394 50.9876 90.8285 63.0265 87.8659C75.0446 84.9084 87.2142 81.1465 97.0498 77.2672C101.972 75.326 106.234 73.3846 109.573 71.535C113.021 69.6244 115.084 68.026 116.006 66.9C117.42 65.1709 117.846 64.1614 117.981 63.7178C117.768 63.6021 117.403 63.4443 116.8 63.2761C115.031 62.7831 112.307 62.5653 108.775 62.7217ZM118.243 63.9068C118.241 63.9079 118.222 63.8927 118.197 63.8579C118.234 63.8883 118.246 63.9057 118.243 63.9068ZM17.1947 92.618C17.1948 92.618 17.1973 92.6199 17.2019 92.624C17.1969 92.6201 17.1946 92.6181 17.1947 92.618ZM17.4777 93.096C17.4851 93.1339 17.4827 93.155 17.4797 93.1561C17.4767 93.1571 17.473 93.1381 17.4777 93.096Z" fill="#C5EDEE"/>
</g>
<g clip-path="url(#clip0_4052_3351)">
<g filter="url(#filter0_i_4052_3351)">
<path d="M82.3334 50.8334C82.3334 47.1334 85.3 44.1667 89 44.1667C92.7 44.1667 95.6667 47.1334 95.6667 50.8334C95.6667 54.5334 92.7 57.5001 89 57.5001C85.3 57.5001 82.3334 54.5334 82.3334 50.8334ZM95.6667 107.5V90.8334H99.3667C101.633 90.8334 103.233 88.6001 102.533 86.4334L95.5333 65.4001C94.6 62.6667 92.0667 60.8334 89.2 60.8334H88.8C85.9334 60.8334 83.3667 62.6667 82.4667 65.4001L79.6 74.0001C83.2 76.0001 85.6667 79.7667 85.6667 84.1667V110.833H92.3334C94.1667 110.833 95.6667 109.333 95.6667 107.5ZM70.6667 75.8334C73.4334 75.8334 75.6667 73.6001 75.6667 70.8334C75.6667 68.0667 73.4334 65.8334 70.6667 65.8334C67.9 65.8334 65.6667 68.0667 65.6667 70.8334C65.6667 73.6001 67.9 75.8334 70.6667 75.8334ZM47.3334 57.5001C51.0334 57.5001 54 54.5334 54 50.8334C54 47.1334 51.0334 44.1667 47.3334 44.1667C43.6334 44.1667 40.6667 47.1334 40.6667 50.8334C40.6667 54.5334 43.6334 57.5001 47.3334 57.5001ZM54 107.5V87.5001H55.6667C57.5 87.5001 59 86.0001 59 84.1667V67.5001C59 63.8334 56 60.8334 52.3334 60.8334H42.3334C38.6667 60.8334 35.6667 63.8334 35.6667 67.5001V84.1667C35.6667 86.0001 37.1667 87.5001 39 87.5001H40.6667V107.5C40.6667 109.333 42.1667 110.833 44 110.833H50.6667C52.5 110.833 54 109.333 54 107.5ZM62.3334 84.1667V94.1667C62.3334 96.0001 63.8334 97.5001 65.6667 97.5001V107.5C65.6667 109.333 67.1667 110.833 69 110.833H72.3334C74.1667 110.833 75.6667 109.333 75.6667 107.5V97.5001C77.5 97.5001 79 96.0001 79 94.1667V84.1667C79 81.4334 76.7334 79.1667 74 79.1667H67.3334C64.6 79.1667 62.3334 81.4334 62.3334 84.1667Z" fill="url(#paint2_linear_4052_3351)"/>
</g>
</g>
<mask id="mask1_4052_3351" style="mask-type:alpha" maskUnits="userSpaceOnUse" x="3" y="57" width="126" height="55">
<path d="M21.1652 93.5925L114.987 67.9076L128.717 57.1865V90.687H106.101V111.042H3.19612L3.19611 93.1077L21.1652 93.5925Z" fill="#D9D9D9"/>
</mask>
<g mask="url(#mask1_4052_3351)">
<path fill-rule="evenodd" clip-rule="evenodd" d="M126.612 66.5343C127.41 70.3402 125.371 74.0603 122.767 77.2423C120.754 79.7021 117.477 81.9532 113.806 83.9871C110.025 86.0821 105.387 88.1801 100.255 90.2044C89.9825 94.256 77.4279 98.129 65.114 101.159C52.8209 104.184 40.5884 106.414 30.98 107.11C26.2063 107.455 21.8481 107.441 18.3757 106.858C16.6403 106.567 14.9216 106.102 13.4249 105.333C11.921 104.56 10.3613 103.33 9.48402 101.4C7.82549 97.7514 9.19219 94.2504 10.796 91.8597C12.4286 89.426 14.8764 87.2085 17.3655 85.3365C22.3762 81.568 28.6994 78.3578 32.7398 76.9148C48.2228 71.3852 65.9207 65.8601 95.6586 60.3531C100.047 59.5404 104.424 58.98 108.388 58.8044C112.284 58.6319 116.075 58.8153 119.145 59.6709C122.041 60.4779 125.732 62.3389 126.612 66.5343ZM108.775 67.532C105.312 67.6853 101.35 68.1838 97.2493 68.9432C68.0182 74.3564 50.7714 79.7515 35.678 85.142C32.4466 86.2961 26.9064 89.092 22.6164 92.3184C20.4552 93.9438 18.8932 95.4709 18.0509 96.7265C17.7759 97.1366 17.6302 97.4304 17.5543 97.6287C17.9867 97.8258 18.7117 98.0566 19.8211 98.2427C22.292 98.6573 25.8533 98.7217 30.3493 98.3963C39.2802 97.7497 50.9876 95.6388 63.0265 92.6762C75.0446 89.7187 87.2142 85.9568 97.0498 82.0775C101.971 80.1363 106.234 78.1949 109.573 76.3453C113.021 74.4347 115.084 72.8363 116.006 71.7103C117.42 69.9812 117.846 68.9717 117.981 68.5281C117.768 68.4124 117.403 68.2546 116.8 68.0864C115.031 67.5934 112.307 67.3756 108.775 67.532ZM118.243 68.7171C118.24 68.7182 118.222 68.703 118.197 68.6682C118.234 68.6986 118.246 68.716 118.243 68.7171ZM17.1947 97.4283C17.1948 97.4283 17.1973 97.4302 17.2018 97.4343C17.1968 97.4304 17.1945 97.4284 17.1947 97.4283ZM17.4777 97.9063C17.485 97.9442 17.4827 97.9653 17.4796 97.9664C17.4766 97.9674 17.4729 97.9485 17.4777 97.9063Z" fill="#5FCBBF"/>
<path fill-rule="evenodd" clip-rule="evenodd" d="M126.612 61.724C127.41 65.5299 125.371 69.25 122.767 72.432C120.754 74.8918 117.477 77.1429 113.806 79.1768C110.025 81.2718 105.387 83.3698 100.255 85.3941C89.9825 89.4457 77.4279 93.3187 65.114 96.349C52.8209 99.3741 40.5884 101.604 30.98 102.299C26.2063 102.645 21.8481 102.631 18.3757 102.048C16.6403 101.757 14.9216 101.292 13.4249 100.523C11.921 99.7501 10.3613 98.5199 9.48402 96.5899C7.82549 92.9411 9.19219 89.4401 10.796 87.0494C12.4286 84.6157 14.8764 82.3982 17.3655 80.5262C22.3762 76.7577 28.6994 73.5475 32.7398 72.1045C48.2228 66.5749 65.9207 61.0498 95.6586 55.5428C100.047 54.7301 104.424 54.1697 108.388 53.9941C112.284 53.8216 116.075 54.005 119.145 54.8606C122.041 55.6676 125.732 57.5285 126.612 61.724ZM108.775 62.7217C105.312 62.875 101.35 63.3735 97.2493 64.1329C68.0182 69.5461 50.7714 74.9412 35.678 80.3317C32.4466 81.4858 26.9064 84.2817 22.6164 87.5081C20.4552 89.1335 18.8932 90.6606 18.0509 91.9162C17.7759 92.3263 17.6302 92.6201 17.5543 92.8184C17.9867 93.0155 18.7117 93.2463 19.8211 93.4324C22.292 93.847 25.8533 93.9114 30.3493 93.5859C39.2802 92.9394 50.9876 90.8285 63.0265 87.8659C75.0446 84.9084 87.2142 81.1465 97.0498 77.2672C101.971 75.326 106.234 73.3846 109.573 71.535C113.021 69.6244 115.084 68.026 116.006 66.9C117.42 65.1709 117.846 64.1614 117.981 63.7178C117.768 63.6021 117.403 63.4443 116.8 63.2761C115.031 62.7831 112.307 62.5653 108.775 62.7217ZM118.243 63.9068C118.24 63.9079 118.222 63.8927 118.197 63.8579C118.234 63.8883 118.246 63.9057 118.243 63.9068ZM17.1947 92.618C17.1948 92.618 17.1973 92.6199 17.2018 92.624C17.1968 92.6201 17.1945 92.6181 17.1947 92.618ZM17.4777 93.096C17.485 93.1339 17.4827 93.155 17.4796 93.1561C17.4766 93.1571 17.4729 93.1381 17.4777 93.096Z" fill="#C5EDEE"/>
</g>
<g clip-path="url(#clip1_4052_3351)">
<rect x="110" y="0.5" width="40" height="40" rx="20" fill="#F1F2F2"/>
<path d="M130 3.83325C120.8 3.83325 113.333 11.2999 113.333 20.4999C113.333 29.6999 120.8 37.1666 130 37.1666C139.2 37.1666 146.667 29.6999 146.667 20.4999C146.667 11.2999 139.2 3.83325 130 3.83325ZM126.667 28.8333L118.333 20.4999L120.683 18.1499L126.667 24.1166L139.317 11.4666L141.667 13.8333L126.667 28.8333Z" fill="#1BA2BB"/>
</g>
<defs>
<filter id="filter0_i_4052_3351" x="35.6667" y="44.1667" width="67.0327" height="70.6667" filterUnits="userSpaceOnUse" color-interpolation-filters="sRGB">
<feFlood flood-opacity="0" result="BackgroundImageFix"/>
<feBlend mode="normal" in="SourceGraphic" in2="BackgroundImageFix" result="shape"/>
<feColorMatrix in="SourceAlpha" type="matrix" values="0 0 0 0 0 0 0 0 0 0 0 0 0 0 0 0 0 0 127 0" result="hardAlpha"/>
<feOffset dy="4"/>
<feGaussianBlur stdDeviation="2"/>
<feComposite in2="hardAlpha" operator="arithmetic" k2="-1" k3="1"/>
<feColorMatrix type="matrix" values="0 0 0 0 0 0 0 0 0 0 0 0 0 0 0 0 0 0 0.08 0"/>
<feBlend mode="normal" in2="shape" result="effect1_innerShadow_4052_3351"/>
</filter>
<linearGradient id="paint0_linear_4052_3351" x1="69" y1="8.5" x2="69" y2="146.5" gradientUnits="userSpaceOnUse">
<stop stop-color="#1BA2BB" stop-opacity="0.5"/>
<stop offset="1" stop-color="#1BA2BB"/>
</linearGradient>
<linearGradient id="paint1_linear_4052_3351" x1="69" y1="8.5" x2="69" y2="146.5" gradientUnits="userSpaceOnUse">
<stop stop-color="#1BA2BB"/>
<stop offset="1" stop-color="#1BA2BB" stop-opacity="0.5"/>
</linearGradient>
<linearGradient id="paint2_linear_4052_3351" x1="69.183" y1="44.1667" x2="69.183" y2="110.833" gradientUnits="userSpaceOnUse">
<stop stop-color="#7CE8FC"/>
<stop offset="1" stop-color="#1BA2BB"/>
</linearGradient>
<clipPath id="clip0_4052_3351">
<rect width="80" height="80" fill="white" transform="translate(29 37.5)"/>
</clipPath>
<clipPath id="clip1_4052_3351">
<rect x="110" y="0.5" width="40" height="40" rx="20" fill="white"/>
</clipPath>
</defs>
</svg>
